<svg xmlns="http://www.w3.org/2000/svg" width="64" height="64" viewBox="0 0 64 64" fill="none"><rect x="0.277344" y="0.138916" width="63.7222" height="63.7222" rx="31.8611" fill="#FFF7E4"></rect><path opacity="0.4" d="M36.6041 18.3223H26.7078C22.1555 18.3223 18.4609 22.0169 18.4609 26.5691V36.4654C18.4609 41.0177 22.1555 44.7123 26.7078 44.7123H36.6041C41.1564 44.7123 44.851 41.0177 44.851 36.4654V26.5691C44.851 22.0169 41.1564 18.3223 36.6041 18.3223ZM40.3317 35.2449C40.3317 37.9828 38.1215 40.193 35.3835 40.193H27.9284C25.1904 40.193 22.9802 37.9828 22.9802 35.2449V27.7897C22.9802 25.0517 25.1904 22.8416 27.9284 22.8416H35.367C38.105 22.8416 40.3152 25.0517 40.3152 27.7897V35.2449H40.3317Z" fill="#F2A500"></path><path d="M26.8061 16.2605V18.3222H26.7071C25.8824 18.3222 25.0907 18.4376 24.332 18.6686V16.2605C24.332 15.5842 24.8763 15.0234 25.5691 15.0234C26.2453 15.0234 26.8061 15.5842 26.8061 16.2605Z" fill="#F2A500"></path><path d="M32.892 16.2605V18.3222H30.418V16.2605C30.418 15.5842 30.9788 15.0234 31.655 15.0234C32.3312 15.0234 32.892 15.5842 32.892 16.2605Z" fill="#F2A500"></path><path d="M38.9955 16.2605V18.6686C38.2368 18.4376 37.4286 18.3222 36.604 18.3222H36.5215V16.2605C36.5215 15.5842 37.0823 15.0234 37.7585 15.0234C38.4348 15.0234 38.9955 15.5842 38.9955 16.2605Z" fill="#F2A500"></path><path d="M48.149 25.4145C48.149 26.1073 47.6047 26.6516 46.912 26.6516H44.8503V26.5691C44.8503 25.7444 44.7348 24.9362 44.5039 24.1775H46.912C47.6047 24.1775 48.149 24.7383 48.149 25.4145Z" fill="#F2A500"></path><path d="M48.1503 31.5171C48.1503 32.1933 47.606 32.7541 46.9133 32.7541H44.8516V30.28H46.9133C47.606 30.28 48.1503 30.8243 48.1503 31.5171Z" fill="#F2A500"></path><path d="M48.149 37.6196C48.149 38.2958 47.6047 38.8566 46.912 38.8566H44.5039C44.7348 38.0979 44.8503 37.2897 44.8503 36.465V36.3826H46.912C47.6047 36.3826 48.149 36.9269 48.149 37.6196Z" fill="#F2A500"></path><path d="M38.9955 44.366V46.7741C38.9955 47.4503 38.4348 48.0111 37.7585 48.0111C37.0823 48.0111 36.5215 47.4503 36.5215 46.7741V44.7123H36.604C37.4286 44.7123 38.2368 44.5969 38.9955 44.366Z" fill="#F2A500"></path><path d="M32.9096 44.7122V46.7739C32.9096 47.4501 32.3488 48.0109 31.6726 48.0109C30.9798 48.0109 30.4355 47.4501 30.4355 46.7739V44.7122H32.9096Z" fill="#F2A500"></path><path d="M26.8061 44.7123V46.7741C26.8061 47.4503 26.2453 48.0111 25.5691 48.0111C24.8763 48.0111 24.332 47.4503 24.332 46.7741V44.366C25.0907 44.5969 25.8824 44.7123 26.7071 44.7123H26.8061Z" fill="#F2A500"></path><path d="M18.8072 24.1775C18.5763 24.9362 18.4609 25.7444 18.4609 26.5691V26.6516H16.3991C15.7229 26.6516 15.1621 26.1073 15.1621 25.4145C15.1621 24.7383 15.7229 24.1775 16.3991 24.1775H18.8072V24.1775Z" fill="#F2A500"></path><path d="M18.4609 30.28V32.7541H16.3991C15.7229 32.7541 15.1621 32.1933 15.1621 31.5171C15.1621 30.8243 15.7229 30.28 16.3991 30.28H18.4609Z" fill="#F2A500"></path><path d="M18.8072 38.8566H16.3991C15.7229 38.8566 15.1621 38.2958 15.1621 37.6196C15.1621 36.9269 15.7229 36.3826 16.3991 36.3826H18.4609V36.465C18.4609 37.2897 18.5763 38.0979 18.8072 38.8566Z" fill="#F2A500"></path><path d="M40.3319 27.7897V35.2284C40.3319 37.9663 38.1217 40.1765 35.3838 40.1765H27.9286C25.1906 40.1765 22.9805 37.9663 22.9805 35.2284V27.7897C22.9805 25.0517 25.1906 22.8416 27.9286 22.8416H35.3673C38.1052 22.8416 40.3319 25.0682 40.3319 27.7897Z" fill="#F2A500"></path></svg>